<svg width="48" height="48" viewBox="0 0 48 48" fill="none" xmlns="http://www.w3.org/2000/svg">
<path d="M30 45.5H18C7.14 45.5 2.5 40.86 2.5 30V18C2.5 7.14 7.14 2.5 18 2.5H30C40.86 2.5 45.5 7.14 45.5 18V30C45.5 40.86 40.86 45.5 30 45.5ZM18 5.5C8.78 5.5 5.5 8.78 5.5 18V30C5.5 39.22 8.78 42.5 18 42.5H30C39.22 42.5 42.5 39.22 42.5 30V18C42.5 8.78 39.22 5.5 30 5.5H18Z" fill="#667085"/>
<path d="M27.52 35.5H20.46C18.26 35.5 16.52 34.42 15.54 32.46L13.76 28.88C13.34 28.02 12.48 27.5 11.52 27.5H3.98001C3.16001 27.5 2.48001 26.82 2.48001 26C2.48001 25.18 3.18001 24.5 4.00001 24.5H11.52C13.62 24.5 15.5 25.66 16.44 27.54L18.22 31.12C18.68 32.04 19.42 32.5 20.46 32.5H27.52C28.48 32.5 29.34 31.98 29.76 31.12L31.54 27.54C32.48 25.66 34.36 24.5 36.46 24.5H43.94C44.76 24.5 45.44 25.18 45.44 26C45.44 26.82 44.76 27.5 43.94 27.5H36.46C35.5 27.5 34.64 28.02 34.22 28.88L32.44 32.46C31.5 34.34 29.62 35.5 27.52 35.5Z" fill="#667085"/>
<path d="M27.34 15.5H20.68C19.84 15.5 19.16 14.82 19.16 14C19.16 13.18 19.84 12.5 20.66 12.5H27.32C28.14 12.5 28.82 13.18 28.82 14C28.82 14.82 28.16 15.5 27.34 15.5Z" fill="#667085"/>
<path d="M29 21.5H19C18.18 21.5 17.5 20.82 17.5 20C17.5 19.18 18.18 18.5 19 18.5H29C29.82 18.5 30.5 19.18 30.5 20C30.5 20.82 29.82 21.5 29 21.5Z" fill="#667085"/>
</svg>
