<svg width="46" height="46" viewBox="0 0 46 46" fill="none" xmlns="http://www.w3.org/2000/svg">
<path d="M30.4634 43.4348H15.5366C9.90175 43.4348 6.67383 40.2068 6.67383 34.572V16.38C6.67383 10.5025 9.65919 7.51718 15.5366 7.51718C16.3016 7.51718 16.936 8.15157 16.936 8.91657C16.936 9.66291 17.2345 10.3719 17.757 10.8944C18.2794 11.4168 18.9884 11.7153 19.7348 11.7153H26.2652C27.8139 11.7153 29.064 10.4652 29.064 8.91657C29.064 8.15157 29.6984 7.51718 30.4634 7.51718C36.3408 7.51718 39.3262 10.5025 39.3262 16.38V34.572C39.3262 40.2068 36.0983 43.4348 30.4634 43.4348ZM14.3238 10.3533C11.3757 10.5958 9.4726 11.9206 9.4726 16.38V34.572C9.4726 38.7142 11.3944 40.636 15.5366 40.636H30.4634C34.6056 40.636 36.5274 38.7142 36.5274 34.572V16.38C36.5274 11.9206 34.6243 10.6145 31.6762 10.3533C31.0419 12.7416 28.8588 14.5141 26.2652 14.5141H19.7348C18.2421 14.5141 16.8427 13.9357 15.7792 12.8722C15.0702 12.1631 14.585 11.3049 14.3238 10.3533Z" fill="#1570EF"/>
<path d="M26.2653 14.5141H19.7349C18.2422 14.5141 16.8428 13.9357 15.7793 12.8721C14.7158 11.8086 14.1373 10.4092 14.1373 8.91655C14.1373 5.8379 16.6562 3.319 19.7349 3.319H26.2653C27.758 3.319 29.1574 3.89742 30.2209 4.96096C31.2845 6.02449 31.8629 7.42387 31.8629 8.91655C31.8629 11.9952 29.344 14.5141 26.2653 14.5141ZM19.7349 6.11777C18.1862 6.11777 16.9361 7.36789 16.9361 8.91655C16.9361 9.66289 17.2346 10.3719 17.7571 10.8943C18.2795 11.4168 18.9885 11.7153 19.7349 11.7153H26.2653C27.814 11.7153 29.0641 10.4652 29.0641 8.91655C29.0641 8.17021 28.7656 7.46119 28.2431 6.93875C27.7207 6.41631 27.0117 6.11777 26.2653 6.11777H19.7349Z" fill="#1570EF"/>
<path d="M23.0001 26.6422H15.5367C14.7717 26.6422 14.1373 26.0078 14.1373 25.2428C14.1373 24.4778 14.7717 23.8434 15.5367 23.8434H23.0001C23.7651 23.8434 24.3995 24.4778 24.3995 25.2428C24.3995 26.0078 23.7651 26.6422 23.0001 26.6422Z" fill="#1570EF"/>
<path d="M30.4635 34.1055H15.5367C14.7717 34.1055 14.1373 33.4711 14.1373 32.7061C14.1373 31.9411 14.7717 31.3067 15.5367 31.3067H30.4635C31.2285 31.3067 31.8629 31.9411 31.8629 32.7061C31.8629 33.4711 31.2285 34.1055 30.4635 34.1055Z" fill="#1570EF"/>
</svg>
