<svg width="39" height="40" viewBox="0 0 39 40" fill="none" xmlns="http://www.w3.org/2000/svg">
<path d="M29.1593 13.4758C29.1113 13.4758 29.0793 13.4758 29.0313 13.4758H28.9514C25.9292 13.3798 23.6746 11.0452 23.6746 8.16696C23.6746 5.22473 26.0731 2.84216 28.9994 2.84216C31.9256 2.84216 34.3242 5.24072 34.3242 8.16696C34.3082 11.0612 32.0535 13.3958 29.1752 13.4918C29.1752 13.4758 29.1753 13.4758 29.1593 13.4758ZM28.9994 5.22474C27.3843 5.22474 26.0731 6.53595 26.0731 8.15098C26.0731 9.73403 27.3044 11.0133 28.8874 11.0772C28.9034 11.0612 29.0313 11.0612 29.1752 11.0772C30.7263 10.9973 31.9256 9.71804 31.9416 8.15098C31.9416 6.53595 30.6304 5.22474 28.9994 5.22474Z" fill="#155EEF"/>
<path d="M29.1758 25.2606C28.5522 25.2606 27.9286 25.2127 27.3049 25.1007C26.6493 24.9888 26.2176 24.3652 26.3295 23.7096C26.4415 23.054 27.0651 22.6222 27.7207 22.7342C29.6875 23.07 31.7663 22.7022 33.1574 21.7748C33.909 21.2791 34.3087 20.6554 34.3087 20.0318C34.3087 19.4082 33.893 18.8005 33.1574 18.3048C31.7663 17.3774 29.6555 17.0096 27.6727 17.3614C27.0171 17.4893 26.3935 17.0416 26.2816 16.386C26.1696 15.7304 26.6014 15.1068 27.257 14.9948C29.8634 14.5311 32.5658 15.0268 34.4846 16.306C35.8918 17.2495 36.7073 18.5927 36.7073 20.0318C36.7073 21.4549 35.9078 22.8141 34.4846 23.7736C33.0295 24.733 31.1426 25.2606 29.1758 25.2606Z" fill="#155EEF"/>
<path d="M9.92332 13.4757C9.90733 13.4757 9.89134 13.4757 9.89134 13.4757C7.01307 13.3798 4.75842 11.0452 4.74243 8.16689C4.74243 5.22466 7.14099 2.82611 10.0672 2.82611C12.9935 2.82611 15.392 5.22467 15.392 8.15091C15.392 11.0452 13.1374 13.3798 10.2591 13.4757L9.92332 12.2764L10.0353 13.4757C10.0033 13.4757 9.9553 13.4757 9.92332 13.4757ZM10.0832 11.0772C10.1792 11.0772 10.2591 11.0771 10.3551 11.0931C11.7782 11.0292 13.0255 9.74994 13.0255 8.16689C13.0255 6.55186 11.7142 5.24065 10.0992 5.24065C8.48419 5.24065 7.17297 6.55186 7.17297 8.16689C7.17297 9.73395 8.38824 10.9972 9.93931 11.0931C9.9553 11.0771 10.0193 11.0772 10.0832 11.0772Z" fill="#155EEF"/>
<path d="M9.9072 25.2606C7.94038 25.2606 6.05352 24.733 4.59839 23.7736C3.19124 22.8301 2.37573 21.4709 2.37573 20.0318C2.37573 18.6086 3.19124 17.2495 4.59839 16.306C6.51724 15.0268 9.21962 14.5311 11.826 14.9948C12.4817 15.1068 12.9134 15.7304 12.8015 16.386C12.6895 17.0416 12.0659 17.4893 11.4103 17.3614C9.42749 17.0096 7.33275 17.3774 5.9256 18.3048C5.17405 18.8005 4.77429 19.4082 4.77429 20.0318C4.77429 20.6554 5.19004 21.2791 5.9256 21.7748C7.31676 22.7022 9.39551 23.07 11.3623 22.7342C12.0179 22.6222 12.6416 23.07 12.7535 23.7096C12.8654 24.3652 12.4337 24.9888 11.7781 25.1007C11.1545 25.2127 10.5308 25.2606 9.9072 25.2606Z" fill="#155EEF"/>
<path d="M19.565 25.4205C19.5171 25.4205 19.4851 25.4205 19.4371 25.4205H19.3571C16.335 25.3246 14.0803 22.99 14.0803 20.1117C14.0803 17.1695 16.4789 14.7869 19.4051 14.7869C22.3314 14.7869 24.7299 17.1855 24.7299 20.1117C24.7139 23.006 22.4593 25.3406 19.581 25.4365C19.581 25.4205 19.581 25.4205 19.565 25.4205ZM19.4051 17.1695C17.7901 17.1695 16.4789 18.4807 16.4789 20.0957C16.4789 21.6788 17.7101 22.958 19.2932 23.022C19.3092 23.006 19.4371 23.006 19.581 23.022C21.1321 22.942 22.3314 21.6628 22.3474 20.0957C22.3474 18.4967 21.0361 17.1695 19.4051 17.1695Z" fill="#155EEF"/>
<path d="M19.565 37.2214C17.6462 37.2214 15.7273 36.7257 14.2402 35.7183C12.8331 34.7749 12.0176 33.4317 12.0176 31.9925C12.0176 30.5694 12.8171 29.1942 14.2402 28.2508C17.2304 26.268 21.9156 26.268 24.8898 28.2508C26.297 29.1942 27.1125 30.5374 27.1125 31.9765C27.1125 33.3997 26.313 34.7749 24.8898 35.7183C23.4027 36.7097 21.4839 37.2214 19.565 37.2214ZM15.5674 30.2656C14.8159 30.7613 14.4161 31.3849 14.4161 32.0085C14.4161 32.6322 14.8319 33.2398 15.5674 33.7355C17.7261 35.1906 21.3879 35.1906 23.5466 33.7355C24.2982 33.2398 24.698 32.6162 24.698 31.9925C24.698 31.3689 24.2822 30.7613 23.5466 30.2656C21.4039 28.8105 17.7421 28.8264 15.5674 30.2656Z" fill="#155EEF"/>
</svg>
